<svg width="404" height="489" viewBox="0 0 404 489" fill="none" xmlns="http://www.w3.org/2000/svg">
<g filter="url(#filter0_f_127_175)">
<rect x="74" y="74.2593" width="256" height="340" rx="10" fill="#DEDEDE" fill-opacity="0.61"/>
</g>
<rect x="64" y="84.2593" width="256" height="313" rx="10" fill="white"/>
<path opacity="0.7" d="M147.765 153.711H145.229V152.112H147.765C148.157 152.112 148.476 152.048 148.722 151.92C148.968 151.788 149.148 151.606 149.262 151.374C149.376 151.141 149.433 150.879 149.433 150.587C149.433 150.291 149.376 150.015 149.262 149.76C149.148 149.505 148.968 149.3 148.722 149.145C148.476 148.99 148.157 148.913 147.765 148.913H145.939V157.259H143.889V147.306H147.765C148.544 147.306 149.212 147.447 149.768 147.73C150.328 148.008 150.757 148.393 151.053 148.885C151.349 149.377 151.497 149.94 151.497 150.574C151.497 151.216 151.349 151.772 151.053 152.242C150.757 152.711 150.328 153.073 149.768 153.329C149.212 153.584 148.544 153.711 147.765 153.711ZM154.758 151.476V157.259H152.789V149.863H154.642L154.758 151.476ZM156.986 149.815L156.952 151.64C156.856 151.626 156.74 151.615 156.604 151.606C156.471 151.592 156.351 151.585 156.241 151.585C155.963 151.585 155.722 151.622 155.517 151.695C155.316 151.763 155.147 151.866 155.011 152.002C154.879 152.139 154.778 152.306 154.71 152.501C154.646 152.697 154.61 152.921 154.601 153.171L154.204 153.048C154.204 152.57 154.252 152.13 154.348 151.729C154.443 151.323 154.582 150.97 154.765 150.669C154.951 150.369 155.179 150.136 155.448 149.972C155.717 149.808 156.025 149.726 156.371 149.726C156.48 149.726 156.592 149.735 156.706 149.753C156.82 149.767 156.913 149.788 156.986 149.815ZM157.396 153.636V153.493C157.396 152.95 157.474 152.451 157.629 151.996C157.784 151.535 158.009 151.137 158.306 150.799C158.602 150.462 158.966 150.2 159.399 150.013C159.832 149.822 160.329 149.726 160.89 149.726C161.45 149.726 161.949 149.822 162.387 150.013C162.824 150.2 163.191 150.462 163.487 150.799C163.788 151.137 164.016 151.535 164.171 151.996C164.326 152.451 164.403 152.95 164.403 153.493V153.636C164.403 154.174 164.326 154.673 164.171 155.133C164.016 155.589 163.788 155.988 163.487 156.33C163.191 156.667 162.826 156.929 162.394 157.116C161.961 157.303 161.464 157.396 160.903 157.396C160.343 157.396 159.844 157.303 159.406 157.116C158.973 156.929 158.606 156.667 158.306 156.33C158.009 155.988 157.784 155.589 157.629 155.133C157.474 154.673 157.396 154.174 157.396 153.636ZM159.365 153.493V153.636C159.365 153.946 159.393 154.236 159.447 154.504C159.502 154.773 159.589 155.01 159.707 155.215C159.83 155.416 159.99 155.573 160.186 155.687C160.382 155.801 160.621 155.858 160.903 155.858C161.177 155.858 161.411 155.801 161.607 155.687C161.803 155.573 161.961 155.416 162.079 155.215C162.198 155.01 162.284 154.773 162.339 154.504C162.398 154.236 162.428 153.946 162.428 153.636V153.493C162.428 153.192 162.398 152.909 162.339 152.645C162.284 152.376 162.195 152.139 162.072 151.934C161.954 151.724 161.797 151.56 161.601 151.442C161.405 151.323 161.168 151.264 160.89 151.264C160.612 151.264 160.375 151.323 160.179 151.442C159.987 151.56 159.83 151.724 159.707 151.934C159.589 152.139 159.502 152.376 159.447 152.645C159.393 152.909 159.365 153.192 159.365 153.493ZM167.582 151.285V160.103H165.613V149.863H167.438L167.582 151.285ZM172.265 153.479V153.623C172.265 154.16 172.201 154.659 172.073 155.12C171.95 155.58 171.768 155.981 171.526 156.323C171.285 156.66 170.984 156.924 170.624 157.116C170.269 157.303 169.858 157.396 169.394 157.396C168.942 157.396 168.55 157.305 168.218 157.123C167.885 156.94 167.605 156.685 167.377 156.357C167.154 156.024 166.974 155.639 166.837 155.202C166.7 154.764 166.595 154.295 166.522 153.793V153.417C166.595 152.88 166.7 152.388 166.837 151.941C166.974 151.49 167.154 151.1 167.377 150.772C167.605 150.439 167.883 150.182 168.211 150C168.544 149.817 168.933 149.726 169.38 149.726C169.849 149.726 170.262 149.815 170.617 149.993C170.977 150.17 171.278 150.426 171.52 150.758C171.766 151.091 171.95 151.487 172.073 151.948C172.201 152.408 172.265 152.918 172.265 153.479ZM170.289 153.623V153.479C170.289 153.165 170.262 152.875 170.207 152.611C170.157 152.342 170.075 152.107 169.961 151.907C169.852 151.706 169.706 151.551 169.523 151.442C169.346 151.328 169.129 151.271 168.874 151.271C168.605 151.271 168.375 151.314 168.184 151.401C167.997 151.487 167.844 151.613 167.726 151.777C167.607 151.941 167.518 152.137 167.459 152.365C167.4 152.593 167.363 152.85 167.35 153.137V154.087C167.372 154.425 167.436 154.728 167.541 154.997C167.646 155.261 167.808 155.471 168.026 155.625C168.245 155.78 168.532 155.858 168.888 155.858C169.147 155.858 169.366 155.801 169.544 155.687C169.722 155.569 169.865 155.407 169.975 155.202C170.089 154.997 170.168 154.76 170.214 154.491C170.264 154.222 170.289 153.932 170.289 153.623ZM173.174 153.636V153.493C173.174 152.95 173.251 152.451 173.406 151.996C173.561 151.535 173.787 151.137 174.083 150.799C174.379 150.462 174.744 150.2 175.177 150.013C175.61 149.822 176.106 149.726 176.667 149.726C177.228 149.726 177.727 149.822 178.164 150.013C178.602 150.2 178.968 150.462 179.265 150.799C179.565 151.137 179.793 151.535 179.948 151.996C180.103 152.451 180.181 152.95 180.181 153.493V153.636C180.181 154.174 180.103 154.673 179.948 155.133C179.793 155.589 179.565 155.988 179.265 156.33C178.968 156.667 178.604 156.929 178.171 157.116C177.738 157.303 177.241 157.396 176.681 157.396C176.12 157.396 175.621 157.303 175.184 157.116C174.751 156.929 174.384 156.667 174.083 156.33C173.787 155.988 173.561 155.589 173.406 155.133C173.251 154.673 173.174 154.174 173.174 153.636ZM175.143 153.493V153.636C175.143 153.946 175.17 154.236 175.225 154.504C175.279 154.773 175.366 155.01 175.484 155.215C175.607 155.416 175.767 155.573 175.963 155.687C176.159 155.801 176.398 155.858 176.681 155.858C176.954 155.858 177.189 155.801 177.385 155.687C177.581 155.573 177.738 155.416 177.856 155.215C177.975 155.01 178.062 154.773 178.116 154.504C178.175 154.236 178.205 153.946 178.205 153.636V153.493C178.205 153.192 178.175 152.909 178.116 152.645C178.062 152.376 177.973 152.139 177.85 151.934C177.731 151.724 177.574 151.56 177.378 151.442C177.182 151.323 176.945 151.264 176.667 151.264C176.389 151.264 176.152 151.323 175.956 151.442C175.765 151.56 175.607 151.724 175.484 151.934C175.366 152.139 175.279 152.376 175.225 152.645C175.17 152.909 175.143 153.192 175.143 153.493ZM185.39 155.215C185.39 155.074 185.349 154.946 185.267 154.833C185.185 154.719 185.032 154.614 184.809 154.518C184.59 154.418 184.273 154.327 183.858 154.245C183.485 154.163 183.136 154.06 182.812 153.937C182.493 153.809 182.215 153.657 181.979 153.479C181.746 153.301 181.564 153.092 181.432 152.85C181.299 152.604 181.233 152.324 181.233 152.009C181.233 151.699 181.299 151.408 181.432 151.134C181.568 150.861 181.762 150.619 182.013 150.41C182.268 150.195 182.578 150.029 182.942 149.911C183.312 149.788 183.726 149.726 184.187 149.726C184.829 149.726 185.381 149.829 185.841 150.034C186.306 150.239 186.661 150.521 186.907 150.881C187.158 151.237 187.283 151.642 187.283 152.098H185.314C185.314 151.907 185.273 151.736 185.191 151.585C185.114 151.431 184.991 151.31 184.822 151.223C184.658 151.132 184.444 151.086 184.18 151.086C183.961 151.086 183.772 151.125 183.612 151.203C183.453 151.276 183.33 151.376 183.243 151.503C183.161 151.626 183.12 151.763 183.12 151.914C183.12 152.028 183.143 152.13 183.188 152.221C183.239 152.308 183.318 152.388 183.428 152.46C183.537 152.533 183.678 152.602 183.852 152.666C184.029 152.725 184.248 152.779 184.508 152.83C185.041 152.939 185.517 153.083 185.937 153.26C186.356 153.433 186.688 153.67 186.935 153.971C187.181 154.267 187.304 154.657 187.304 155.14C187.304 155.468 187.231 155.769 187.085 156.042C186.939 156.316 186.729 156.555 186.456 156.76C186.183 156.961 185.854 157.118 185.472 157.232C185.093 157.341 184.667 157.396 184.193 157.396C183.505 157.396 182.922 157.273 182.443 157.027C181.969 156.781 181.609 156.469 181.363 156.09C181.122 155.708 181.001 155.316 181.001 154.915H182.867C182.876 155.183 182.945 155.4 183.072 155.564C183.204 155.728 183.371 155.847 183.571 155.919C183.776 155.992 183.997 156.029 184.234 156.029C184.49 156.029 184.701 155.995 184.87 155.926C185.039 155.853 185.166 155.758 185.253 155.639C185.344 155.516 185.39 155.375 185.39 155.215ZM192.574 155.591V152.296C192.574 152.059 192.535 151.857 192.458 151.688C192.381 151.515 192.26 151.38 192.096 151.285C191.936 151.189 191.729 151.141 191.474 151.141C191.255 151.141 191.066 151.18 190.906 151.257C190.747 151.33 190.624 151.437 190.537 151.579C190.451 151.715 190.407 151.877 190.407 152.064H188.438C188.438 151.75 188.511 151.451 188.657 151.168C188.803 150.886 189.015 150.638 189.293 150.423C189.571 150.205 189.901 150.034 190.284 149.911C190.672 149.788 191.104 149.726 191.583 149.726C192.157 149.726 192.668 149.822 193.114 150.013C193.561 150.205 193.912 150.492 194.167 150.875C194.427 151.257 194.557 151.736 194.557 152.31V155.475C194.557 155.881 194.582 156.213 194.632 156.473C194.682 156.728 194.755 156.952 194.851 157.143V157.259H192.861C192.766 157.059 192.693 156.808 192.643 156.507C192.597 156.202 192.574 155.897 192.574 155.591ZM192.834 152.754L192.848 153.869H191.747C191.487 153.869 191.262 153.898 191.07 153.958C190.879 154.017 190.722 154.101 190.599 154.21C190.476 154.315 190.384 154.438 190.325 154.58C190.271 154.721 190.243 154.876 190.243 155.044C190.243 155.213 190.282 155.366 190.359 155.502C190.437 155.635 190.549 155.739 190.694 155.817C190.84 155.89 191.011 155.926 191.207 155.926C191.503 155.926 191.761 155.867 191.979 155.749C192.198 155.63 192.367 155.484 192.485 155.311C192.608 155.138 192.672 154.974 192.677 154.819L193.196 155.653C193.123 155.84 193.023 156.033 192.896 156.234C192.772 156.434 192.615 156.624 192.424 156.801C192.232 156.974 192.002 157.118 191.733 157.232C191.465 157.341 191.146 157.396 190.776 157.396C190.307 157.396 189.881 157.303 189.498 157.116C189.12 156.924 188.819 156.662 188.596 156.33C188.377 155.992 188.268 155.61 188.268 155.181C188.268 154.794 188.34 154.45 188.486 154.149C188.632 153.848 188.846 153.595 189.129 153.39C189.416 153.181 189.774 153.023 190.202 152.918C190.631 152.809 191.127 152.754 191.692 152.754H192.834ZM198.152 146.759V157.259H196.177V146.759H198.152ZM207.47 147.306V157.259H205.426V147.306H207.47ZM210.532 147.306V148.913H202.411V147.306H210.532ZM214.34 157.396C213.766 157.396 213.251 157.305 212.795 157.123C212.339 156.936 211.952 156.678 211.633 156.35C211.318 156.022 211.077 155.641 210.908 155.208C210.74 154.771 210.655 154.306 210.655 153.814V153.541C210.655 152.98 210.735 152.467 210.895 152.002C211.054 151.538 211.282 151.134 211.578 150.792C211.879 150.451 212.243 150.189 212.672 150.006C213.1 149.819 213.583 149.726 214.121 149.726C214.645 149.726 215.11 149.813 215.516 149.986C215.921 150.159 216.261 150.405 216.534 150.724C216.812 151.043 217.022 151.426 217.163 151.873C217.304 152.315 217.375 152.807 217.375 153.349V154.169H211.496V152.857H215.44V152.707C215.44 152.433 215.39 152.189 215.29 151.975C215.194 151.756 215.049 151.583 214.853 151.456C214.657 151.328 214.406 151.264 214.101 151.264C213.841 151.264 213.618 151.321 213.431 151.435C213.244 151.549 213.091 151.708 212.973 151.914C212.859 152.119 212.772 152.36 212.713 152.638C212.658 152.912 212.631 153.212 212.631 153.541V153.814C212.631 154.11 212.672 154.384 212.754 154.634C212.84 154.885 212.961 155.101 213.116 155.284C213.276 155.466 213.467 155.607 213.69 155.708C213.918 155.808 214.176 155.858 214.463 155.858C214.818 155.858 215.149 155.79 215.454 155.653C215.764 155.512 216.031 155.3 216.254 155.017L217.211 156.056C217.056 156.279 216.844 156.494 216.575 156.699C216.311 156.904 215.992 157.072 215.618 157.205C215.244 157.332 214.818 157.396 214.34 157.396ZM220.465 151.394V157.259H218.489V149.863H220.342L220.465 151.394ZM220.191 153.301H219.645C219.645 152.786 219.706 152.312 219.829 151.879C219.957 151.442 220.141 151.064 220.383 150.745C220.629 150.421 220.932 150.17 221.292 149.993C221.652 149.815 222.069 149.726 222.543 149.726C222.871 149.726 223.172 149.776 223.445 149.876C223.719 149.972 223.953 150.125 224.149 150.334C224.35 150.54 224.505 150.808 224.614 151.141C224.724 151.469 224.778 151.863 224.778 152.324V157.259H222.81V152.542C222.81 152.205 222.764 151.945 222.673 151.763C222.582 151.581 222.452 151.453 222.283 151.38C222.119 151.307 221.921 151.271 221.688 151.271C221.433 151.271 221.21 151.323 221.019 151.428C220.832 151.533 220.677 151.679 220.554 151.866C220.431 152.048 220.34 152.262 220.28 152.508C220.221 152.754 220.191 153.019 220.191 153.301ZM224.594 153.076L223.89 153.165C223.89 152.681 223.949 152.233 224.067 151.818C224.19 151.403 224.37 151.039 224.607 150.724C224.849 150.41 225.147 150.166 225.503 149.993C225.858 149.815 226.269 149.726 226.733 149.726C227.089 149.726 227.412 149.778 227.704 149.883C227.996 149.984 228.244 150.145 228.449 150.369C228.659 150.587 228.818 150.875 228.928 151.23C229.042 151.585 229.099 152.021 229.099 152.536V157.259H227.123V152.536C227.123 152.194 227.077 151.934 226.986 151.756C226.9 151.574 226.772 151.449 226.604 151.38C226.439 151.307 226.243 151.271 226.016 151.271C225.779 151.271 225.571 151.319 225.394 151.415C225.216 151.506 225.068 151.633 224.949 151.797C224.831 151.961 224.742 152.153 224.683 152.372C224.623 152.586 224.594 152.82 224.594 153.076ZM232.592 151.285V160.103H230.623V149.863H232.448L232.592 151.285ZM237.274 153.479V153.623C237.274 154.16 237.211 154.659 237.083 155.12C236.96 155.58 236.778 155.981 236.536 156.323C236.295 156.66 235.994 156.924 235.634 157.116C235.278 157.303 234.868 157.396 234.403 157.396C233.952 157.396 233.56 157.305 233.228 157.123C232.895 156.94 232.615 156.685 232.387 156.357C232.163 156.024 231.983 155.639 231.847 155.202C231.71 154.764 231.605 154.295 231.532 153.793V153.417C231.605 152.88 231.71 152.388 231.847 151.941C231.983 151.49 232.163 151.1 232.387 150.772C232.615 150.439 232.893 150.182 233.221 150C233.553 149.817 233.943 149.726 234.39 149.726C234.859 149.726 235.271 149.815 235.627 149.993C235.987 150.17 236.288 150.426 236.529 150.758C236.775 151.091 236.96 151.487 237.083 151.948C237.211 152.408 237.274 152.918 237.274 153.479ZM235.299 153.623V153.479C235.299 153.165 235.271 152.875 235.217 152.611C235.167 152.342 235.085 152.107 234.971 151.907C234.861 151.706 234.715 151.551 234.533 151.442C234.355 151.328 234.139 151.271 233.884 151.271C233.615 151.271 233.385 151.314 233.193 151.401C233.007 151.487 232.854 151.613 232.735 151.777C232.617 151.941 232.528 152.137 232.469 152.365C232.41 152.593 232.373 152.85 232.359 153.137V154.087C232.382 154.425 232.446 154.728 232.551 154.997C232.656 155.261 232.817 155.471 233.036 155.625C233.255 155.78 233.542 155.858 233.897 155.858C234.157 155.858 234.376 155.801 234.554 155.687C234.731 155.569 234.875 155.407 234.984 155.202C235.098 154.997 235.178 154.76 235.224 154.491C235.274 154.222 235.299 153.932 235.299 153.623ZM240.576 146.759V157.259H238.601V146.759H240.576ZM246.195 155.591V152.296C246.195 152.059 246.157 151.857 246.079 151.688C246.002 151.515 245.881 151.38 245.717 151.285C245.557 151.189 245.35 151.141 245.095 151.141C244.876 151.141 244.687 151.18 244.527 151.257C244.368 151.33 244.245 151.437 244.158 151.579C244.072 151.715 244.028 151.877 244.028 152.064H242.06C242.06 151.75 242.132 151.451 242.278 151.168C242.424 150.886 242.636 150.638 242.914 150.423C243.192 150.205 243.522 150.034 243.905 149.911C244.293 149.788 244.726 149.726 245.204 149.726C245.778 149.726 246.289 149.822 246.735 150.013C247.182 150.205 247.533 150.492 247.788 150.875C248.048 151.257 248.178 151.736 248.178 152.31V155.475C248.178 155.881 248.203 156.213 248.253 156.473C248.303 156.728 248.376 156.952 248.472 157.143V157.259H246.482C246.387 157.059 246.314 156.808 246.264 156.507C246.218 156.202 246.195 155.897 246.195 155.591ZM246.455 152.754L246.469 153.869H245.368C245.108 153.869 244.883 153.898 244.691 153.958C244.5 154.017 244.343 154.101 244.22 154.21C244.097 154.315 244.006 154.438 243.946 154.58C243.892 154.721 243.864 154.876 243.864 155.044C243.864 155.213 243.903 155.366 243.98 155.502C244.058 155.635 244.17 155.739 244.315 155.817C244.461 155.89 244.632 155.926 244.828 155.926C245.124 155.926 245.382 155.867 245.601 155.749C245.819 155.63 245.988 155.484 246.106 155.311C246.229 155.138 246.293 154.974 246.298 154.819L246.817 155.653C246.744 155.84 246.644 156.033 246.517 156.234C246.394 156.434 246.236 156.624 246.045 156.801C245.854 156.974 245.623 157.118 245.354 157.232C245.086 157.341 244.767 157.396 244.397 157.396C243.928 157.396 243.502 157.303 243.119 157.116C242.741 156.924 242.44 156.662 242.217 156.33C241.998 155.992 241.889 155.61 241.889 155.181C241.889 154.794 241.962 154.45 242.107 154.149C242.253 153.848 242.467 153.595 242.75 153.39C243.037 153.181 243.395 153.023 243.823 152.918C244.252 152.809 244.748 152.754 245.313 152.754H246.455ZM253.318 149.863V151.257H249.012V149.863H253.318ZM250.078 148.038H252.047V155.031C252.047 155.245 252.074 155.409 252.129 155.523C252.188 155.637 252.275 155.717 252.389 155.762C252.503 155.803 252.646 155.824 252.819 155.824C252.942 155.824 253.052 155.819 253.147 155.81C253.248 155.796 253.332 155.783 253.4 155.769L253.407 157.218C253.239 157.273 253.056 157.316 252.86 157.348C252.664 157.38 252.448 157.396 252.211 157.396C251.778 157.396 251.4 157.325 251.076 157.184C250.757 157.038 250.511 156.806 250.338 156.487C250.165 156.168 250.078 155.749 250.078 155.229V148.038ZM257.844 157.396C257.27 157.396 256.755 157.305 256.299 157.123C255.843 156.936 255.456 156.678 255.137 156.35C254.822 156.022 254.581 155.641 254.412 155.208C254.243 154.771 254.159 154.306 254.159 153.814V153.541C254.159 152.98 254.239 152.467 254.398 152.002C254.558 151.538 254.786 151.134 255.082 150.792C255.383 150.451 255.747 150.189 256.176 150.006C256.604 149.819 257.087 149.726 257.625 149.726C258.149 149.726 258.614 149.813 259.02 149.986C259.425 150.159 259.765 150.405 260.038 150.724C260.316 151.043 260.526 151.426 260.667 151.873C260.808 152.315 260.879 152.807 260.879 153.349V154.169H255V152.857H258.944V152.707C258.944 152.433 258.894 152.189 258.794 151.975C258.698 151.756 258.552 151.583 258.356 151.456C258.16 151.328 257.91 151.264 257.604 151.264C257.345 151.264 257.121 151.321 256.935 151.435C256.748 151.549 256.595 151.708 256.477 151.914C256.363 152.119 256.276 152.36 256.217 152.638C256.162 152.912 256.135 153.212 256.135 153.541V153.814C256.135 154.11 256.176 154.384 256.258 154.634C256.344 154.885 256.465 155.101 256.62 155.284C256.78 155.466 256.971 155.607 257.194 155.708C257.422 155.808 257.68 155.858 257.967 155.858C258.322 155.858 258.653 155.79 258.958 155.653C259.268 155.512 259.535 155.3 259.758 155.017L260.715 156.056C260.56 156.279 260.348 156.494 260.079 156.699C259.815 156.904 259.496 157.072 259.122 157.205C258.748 157.332 258.322 157.396 257.844 157.396Z" fill="#01070D"/>
<rect x="95" y="217.259" width="195" height="6" rx="3" fill="#EBF1F7"/>
<g opacity="0.7">
<path d="M95 143.259H95.015" stroke="#1D92FF" stroke-width="4" stroke-linecap="round" stroke-linejoin="round"/>
<path d="M95 152.259H95.015" stroke="#1D92FF" stroke-width="4" stroke-linecap="round" stroke-linejoin="round"/>
<path d="M95 161.259H95.015" stroke="#1D92FF" stroke-width="4" stroke-linecap="round" stroke-linejoin="round"/>
</g>
<rect x="95" y="201.259" width="75" height="6" rx="3" fill="#C4C4C4"/>
<path d="M109.125 293.94C109.125 291.455 111.14 289.44 113.625 289.44H114.405C116.89 289.44 118.905 291.455 118.905 293.94V338.977H109.125V293.94Z" fill="#1D92FF"/>
<path d="M137.379 297.637C137.379 295.151 139.394 293.137 141.879 293.137H142.659C145.144 293.137 147.159 295.151 147.159 297.637V338.977H137.379V297.637Z" fill="#1D92FF"/>
<path d="M165.631 310.206C165.631 307.721 167.646 305.706 170.131 305.706H170.911C173.396 305.706 175.411 307.721 175.411 310.206V338.977H165.631V310.206Z" fill="#1D92FF"/>
<path d="M193.883 277.674C193.883 275.189 195.898 273.174 198.383 273.174H199.163C201.648 273.174 203.663 275.189 203.663 277.674V338.977H193.883V277.674Z" fill="#1D92FF"/>
<path d="M222.137 290.243C222.137 287.758 224.151 285.743 226.637 285.743H227.416C229.902 285.743 231.916 287.758 231.916 290.243V338.977H222.137V290.243Z" fill="#1D92FF"/>
<path d="M250.389 310.206C250.389 307.721 252.403 305.706 254.889 305.706H255.668C258.154 305.706 260.168 307.721 260.168 310.206V338.977H250.389V310.206Z" fill="#1D92FF"/>
<path opacity="0.15" d="M95 305.03C95 302.545 97.0147 300.53 99.5 300.53H100.28C102.765 300.53 104.78 302.545 104.78 305.03V338.977H95V305.03Z" fill="#1D92FF"/>
<path opacity="0.15" d="M123.252 274.717C123.252 272.232 125.267 270.217 127.752 270.217H128.532C131.017 270.217 133.032 272.232 133.032 274.717V338.977H123.252V274.717Z" fill="#1D92FF"/>
<path opacity="0.15" d="M151.506 271.759C151.506 269.274 153.521 267.259 156.006 267.259H156.786C159.271 267.259 161.286 269.274 161.286 271.759V338.977H151.506V271.759Z" fill="#1D92FF"/>
<path opacity="0.15" d="M179.758 297.637C179.758 295.151 181.773 293.137 184.258 293.137H185.038C187.523 293.137 189.538 295.151 189.538 297.637V338.977H179.758V297.637Z" fill="#1D92FF"/>
<path opacity="0.15" d="M208.01 320.557C208.01 318.072 210.024 316.057 212.51 316.057H213.289C215.775 316.057 217.789 318.072 217.789 320.557V338.977H208.01V320.557Z" fill="#1D92FF"/>
<path opacity="0.15" d="M236.264 274.717C236.264 272.232 238.278 270.217 240.764 270.217H241.543C244.029 270.217 246.043 272.232 246.043 274.717V338.977H236.264V274.717Z" fill="#1D92FF"/>
<rect x="106" y="349.259" width="40" height="6" rx="2.5" fill="#EFEEEE"/>
<circle cx="98" cy="352.259" r="3" fill="#DDEFFF"/>
<rect x="172" y="349.259" width="39" height="6" rx="2.5" fill="#EFEEEE"/>
<circle cx="164" cy="352.259" r="3" fill="#1D92FF"/>
<g opacity="0.5">
<path d="M99.52 371.872C99.4467 371.566 99.3133 371.336 99.12 371.182C98.9267 371.029 98.6567 370.952 98.31 370.952C97.7833 370.952 97.39 371.156 97.13 371.562C96.87 371.962 96.7333 372.629 96.72 373.562C96.8933 373.269 97.1467 373.042 97.48 372.882C97.8133 372.722 98.1733 372.642 98.56 372.642C99 372.642 99.3867 372.739 99.72 372.932C100.06 373.119 100.323 373.392 100.51 373.752C100.703 374.112 100.8 374.542 100.8 375.042C100.8 375.509 100.707 375.926 100.52 376.292C100.34 376.659 100.07 376.949 99.71 377.162C99.35 377.369 98.9167 377.472 98.41 377.472C97.7233 377.472 97.1833 377.322 96.79 377.022C96.4033 376.716 96.13 376.286 95.97 375.732C95.8167 375.179 95.74 374.489 95.74 373.662C95.74 371.222 96.6 370.002 98.32 370.002C98.9867 370.002 99.51 370.182 99.89 370.542C100.277 370.902 100.503 371.346 100.57 371.872H99.52ZM98.31 373.602C97.9033 373.602 97.5567 373.726 97.27 373.972C96.99 374.212 96.85 374.562 96.85 375.022C96.85 375.482 96.98 375.849 97.24 376.122C97.5067 376.389 97.8767 376.522 98.35 376.522C98.77 376.522 99.1 376.392 99.34 376.132C99.5867 375.872 99.71 375.526 99.71 375.092C99.71 374.639 99.59 374.279 99.35 374.012C99.1167 373.739 98.77 373.602 98.31 373.602ZM106.636 371.062L103.856 377.472H102.706L105.516 371.182H101.816V370.212H106.636V371.062Z" fill="#01070D"/>
<path d="M123.996 373.662C123.303 373.316 122.956 372.769 122.956 372.022C122.956 371.662 123.046 371.332 123.226 371.032C123.406 370.732 123.676 370.496 124.036 370.322C124.396 370.142 124.836 370.052 125.356 370.052C125.869 370.052 126.306 370.142 126.666 370.322C127.033 370.496 127.306 370.732 127.486 371.032C127.666 371.332 127.756 371.662 127.756 372.022C127.756 372.396 127.659 372.726 127.466 373.012C127.279 373.292 127.029 373.509 126.716 373.662C127.096 373.802 127.396 374.032 127.616 374.352C127.836 374.666 127.946 375.036 127.946 375.462C127.946 375.896 127.836 376.279 127.616 376.612C127.396 376.946 127.089 377.202 126.696 377.382C126.303 377.562 125.856 377.652 125.356 377.652C124.856 377.652 124.409 377.562 124.016 377.382C123.629 377.202 123.326 376.946 123.106 376.612C122.886 376.279 122.776 375.896 122.776 375.462C122.776 375.029 122.886 374.656 123.106 374.342C123.326 374.029 123.623 373.802 123.996 373.662ZM126.666 372.162C126.666 371.789 126.549 371.502 126.316 371.302C126.083 371.102 125.763 371.002 125.356 371.002C124.956 371.002 124.639 371.102 124.406 371.302C124.173 371.502 124.056 371.792 124.056 372.172C124.056 372.506 124.176 372.779 124.416 372.992C124.663 373.199 124.976 373.302 125.356 373.302C125.736 373.302 126.049 373.196 126.296 372.982C126.543 372.769 126.666 372.496 126.666 372.162ZM125.356 374.162C124.916 374.162 124.556 374.272 124.276 374.492C124.003 374.706 123.866 375.016 123.866 375.422C123.866 375.802 123.999 376.112 124.266 376.352C124.533 376.586 124.896 376.702 125.356 376.702C125.809 376.702 126.166 376.582 126.426 376.342C126.693 376.102 126.826 375.796 126.826 375.422C126.826 375.022 126.689 374.712 126.416 374.492C126.149 374.272 125.796 374.162 125.356 374.162ZM133.763 371.062L130.983 377.472H129.833L132.643 371.182H128.943V370.212H133.763V371.062Z" fill="#01070D"/>
<path d="M150.562 375.922C151.202 375.369 151.705 374.916 152.072 374.562C152.445 374.202 152.755 373.829 153.002 373.442C153.249 373.056 153.372 372.669 153.372 372.282C153.372 371.882 153.275 371.569 153.082 371.342C152.895 371.116 152.599 371.002 152.192 371.002C151.799 371.002 151.492 371.129 151.272 371.382C151.059 371.629 150.945 371.962 150.932 372.382H149.832C149.852 371.622 150.079 371.042 150.512 370.642C150.952 370.236 151.509 370.032 152.182 370.032C152.909 370.032 153.475 370.232 153.882 370.632C154.295 371.032 154.502 371.566 154.502 372.232C154.502 372.712 154.379 373.176 154.132 373.622C153.892 374.062 153.602 374.459 153.262 374.812C152.929 375.159 152.502 375.562 151.982 376.022L151.532 376.422H154.702V377.372H149.842V376.542L150.562 375.922ZM160.324 371.062L157.544 377.472H156.394L159.204 371.182H155.504V370.212H160.324V371.062Z" fill="#01070D"/>
<path d="M176.958 375.952V375.092L180.318 370.272H181.698V374.962H182.628V375.952H181.698V377.472H180.578V375.952H176.958ZM180.628 371.432L178.268 374.962H180.628V371.432ZM188.273 371.162H184.923V373.152C185.063 372.966 185.269 372.809 185.543 372.682C185.823 372.556 186.119 372.492 186.433 372.492C186.993 372.492 187.446 372.612 187.793 372.852C188.146 373.092 188.396 373.396 188.543 373.762C188.696 374.129 188.773 374.516 188.773 374.922C188.773 375.416 188.676 375.856 188.483 376.242C188.296 376.622 188.013 376.922 187.633 377.142C187.259 377.362 186.799 377.472 186.253 377.472C185.526 377.472 184.943 377.292 184.503 376.932C184.063 376.572 183.799 376.096 183.713 375.502H184.823C184.896 375.816 185.059 376.066 185.313 376.252C185.566 376.432 185.883 376.522 186.263 376.522C186.736 376.522 187.089 376.379 187.323 376.092C187.563 375.806 187.683 375.426 187.683 374.952C187.683 374.472 187.563 374.106 187.323 373.852C187.083 373.592 186.729 373.462 186.263 373.462C185.936 373.462 185.659 373.546 185.433 373.712C185.213 373.872 185.053 374.092 184.953 374.372H183.873V370.162H188.273V371.162Z" fill="#01070D"/>
<path d="M205.21 375.952V375.092L208.57 370.272H209.95V374.962H210.88V375.952H209.95V377.472H208.83V375.952H205.21ZM208.88 371.432L206.52 374.962H208.88V371.432ZM211.825 373.732C211.825 372.579 212.018 371.679 212.405 371.032C212.798 370.379 213.471 370.052 214.425 370.052C215.378 370.052 216.048 370.379 216.435 371.032C216.828 371.679 217.025 372.579 217.025 373.732C217.025 374.899 216.828 375.812 216.435 376.472C216.048 377.126 215.378 377.452 214.425 377.452C213.471 377.452 212.798 377.126 212.405 376.472C212.018 375.812 211.825 374.899 211.825 373.732ZM215.905 373.732C215.905 373.192 215.868 372.736 215.795 372.362C215.728 371.989 215.588 371.686 215.375 371.452C215.161 371.212 214.845 371.092 214.425 371.092C214.005 371.092 213.688 371.212 213.475 371.452C213.261 371.686 213.118 371.989 213.045 372.362C212.978 372.736 212.945 373.192 212.945 373.732C212.945 374.292 212.978 374.762 213.045 375.142C213.111 375.522 213.251 375.829 213.465 376.062C213.685 376.296 214.005 376.412 214.425 376.412C214.845 376.412 215.161 376.296 215.375 376.062C215.595 375.829 215.738 375.522 215.805 375.142C215.871 374.762 215.905 374.292 215.905 373.732Z" fill="#01070D"/>
<path d="M238.304 371.162H234.954V373.152C235.094 372.966 235.301 372.809 235.574 372.682C235.854 372.556 236.151 372.492 236.464 372.492C237.024 372.492 237.477 372.612 237.824 372.852C238.177 373.092 238.427 373.396 238.574 373.762C238.727 374.129 238.804 374.516 238.804 374.922C238.804 375.416 238.707 375.856 238.514 376.242C238.327 376.622 238.044 376.922 237.664 377.142C237.291 377.362 236.831 377.472 236.284 377.472C235.557 377.472 234.974 377.292 234.534 376.932C234.094 376.572 233.831 376.096 233.744 375.502H234.854C234.927 375.816 235.091 376.066 235.344 376.252C235.597 376.432 235.914 376.522 236.294 376.522C236.767 376.522 237.121 376.379 237.354 376.092C237.594 375.806 237.714 375.426 237.714 374.952C237.714 374.472 237.594 374.106 237.354 373.852C237.114 373.592 236.761 373.462 236.294 373.462C235.967 373.462 235.691 373.546 235.464 373.712C235.244 373.872 235.084 374.092 234.984 374.372H233.904V370.162H238.304V371.162ZM239.991 373.732C239.991 372.579 240.184 371.679 240.571 371.032C240.964 370.379 241.637 370.052 242.591 370.052C243.544 370.052 244.214 370.379 244.601 371.032C244.994 371.679 245.191 372.579 245.191 373.732C245.191 374.899 244.994 375.812 244.601 376.472C244.214 377.126 243.544 377.452 242.591 377.452C241.637 377.452 240.964 377.126 240.571 376.472C240.184 375.812 239.991 374.899 239.991 373.732ZM244.071 373.732C244.071 373.192 244.034 372.736 243.961 372.362C243.894 371.989 243.754 371.686 243.541 371.452C243.327 371.212 243.011 371.092 242.591 371.092C242.171 371.092 241.854 371.212 241.641 371.452C241.427 371.686 241.284 371.989 241.211 372.362C241.144 372.736 241.111 373.192 241.111 373.732C241.111 374.292 241.144 374.762 241.211 375.142C241.277 375.522 241.417 375.829 241.631 376.062C241.851 376.296 242.171 376.412 242.591 376.412C243.011 376.412 243.327 376.296 243.541 376.062C243.761 375.829 243.904 375.522 243.971 375.142C244.037 374.762 244.071 374.292 244.071 373.732Z" fill="#01070D"/>
<path d="M265.776 371.872C265.703 371.566 265.569 371.336 265.376 371.182C265.183 371.029 264.913 370.952 264.566 370.952C264.039 370.952 263.646 371.156 263.386 371.562C263.126 371.962 262.989 372.629 262.976 373.562C263.149 373.269 263.403 373.042 263.736 372.882C264.069 372.722 264.429 372.642 264.816 372.642C265.256 372.642 265.643 372.739 265.976 372.932C266.316 373.119 266.579 373.392 266.766 373.752C266.959 374.112 267.056 374.542 267.056 375.042C267.056 375.509 266.963 375.926 266.776 376.292C266.596 376.659 266.326 376.949 265.966 377.162C265.606 377.369 265.173 377.472 264.666 377.472C263.979 377.472 263.439 377.322 263.046 377.022C262.659 376.716 262.386 376.286 262.226 375.732C262.073 375.179 261.996 374.489 261.996 373.662C261.996 371.222 262.856 370.002 264.576 370.002C265.243 370.002 265.766 370.182 266.146 370.542C266.533 370.902 266.759 371.346 266.826 371.872H265.776ZM264.566 373.602C264.159 373.602 263.813 373.726 263.526 373.972C263.246 374.212 263.106 374.562 263.106 375.022C263.106 375.482 263.236 375.849 263.496 376.122C263.763 376.389 264.133 376.522 264.606 376.522C265.026 376.522 265.356 376.392 265.596 376.132C265.843 375.872 265.966 375.526 265.966 375.092C265.966 374.639 265.846 374.279 265.606 374.012C265.373 373.739 265.026 373.602 264.566 373.602ZM268.272 373.732C268.272 372.579 268.465 371.679 268.852 371.032C269.245 370.379 269.919 370.052 270.872 370.052C271.825 370.052 272.495 370.379 272.882 371.032C273.275 371.679 273.472 372.579 273.472 373.732C273.472 374.899 273.275 375.812 272.882 376.472C272.495 377.126 271.825 377.452 270.872 377.452C269.919 377.452 269.245 377.126 268.852 376.472C268.465 375.812 268.272 374.899 268.272 373.732ZM272.352 373.732C272.352 373.192 272.315 372.736 272.242 372.362C272.175 371.989 272.035 371.686 271.822 371.452C271.609 371.212 271.292 371.092 270.872 371.092C270.452 371.092 270.135 371.212 269.922 371.452C269.709 371.686 269.565 371.989 269.492 372.362C269.425 372.736 269.392 373.192 269.392 373.732C269.392 374.292 269.425 374.762 269.492 375.142C269.559 375.522 269.699 375.829 269.912 376.062C270.132 376.296 270.452 376.412 270.872 376.412C271.292 376.412 271.609 376.296 271.822 376.062C272.042 375.829 272.185 375.522 272.252 375.142C272.319 374.762 272.352 374.292 272.352 373.732Z" fill="#01070D"/>
</g>
<path d="M102.5 143.259H122" stroke="#1D92FF" stroke-width="4" stroke-linecap="round" stroke-linejoin="round"/>
<path d="M102.5 152.259H122" stroke="#1D92FF" stroke-width="4" stroke-linecap="round" stroke-linejoin="round"/>
<path d="M102.5 161.259H122" stroke="#1D92FF" stroke-width="4" stroke-linecap="round" stroke-linejoin="round"/>
<defs>
<filter id="filter0_f_127_175" x="0" y="0.259277" width="404" height="488" filterUnits="userSpaceOnUse" color-interpolation-filters="sRGB">
<feFlood flood-opacity="0" result="BackgroundImageFix"/>
<feBlend mode="normal" in="SourceGraphic" in2="BackgroundImageFix" result="shape"/>
<feGaussianBlur stdDeviation="37" result="effect1_foregroundBlur_127_175"/>
</filter>
</defs>
</svg>
